<svg>
<metadata>
Created by potrace 1.15, written by Peter Selinger 2001-2017
</metadata>
<g transform="translate(0.000000,1280.000000) scale(0.100000,-0.100000)"
fill="#000000" stroke="none">
<path d="M2384 12790 c-12 -4 -31 -21 -43 -36 -21 -26 -21 -32 -21 -475 l0
-449 880 0 880 0 0 440 c0 375 -2 445 -15 470 -32 63 4 60 -867 59 -436 0
-803 -4 -814 -9z"/>
<path d="M2477 11393 c-4 -122 -11 -180 -30 -253 -78 -300 -232 -593 -574
-1090 -96 -140 -223 -327 -282 -415 -291 -433 -440 -729 -510 -1010 -32 -128
-56 -304 -43 -317 5 -5 980 -7 2168 -6 l2159 3 -3 65 c-9 168 -72 393 -171
611 -107 236 -231 437 -583 949 -387 564 -516 788 -610 1060 -54 159 -70 245
-76 408 l-4 152 -718 0 -717 0 -6 -157z"/>
<path d="M1160 6585 l0 -1355 2040 0 2040 0 0 1355 0 1355 -2040 0 -2040 0 0
-1355z"/>
<path d="M1181 4754 c-29 -21 -52 -74 -44 -105 3 -13 29 -78 58 -144 168 -384
238 -760 239 -1270 1 -309 -2 -331 -90 -880 -111 -690 -134 -906 -134 -1242 0
-234 15 -384 54 -528 95 -352 314 -543 655 -571 103 -9 198 9 291 53 67 31 92
52 226 189 134 138 154 154 184 154 39 0 86 -45 190 -179 73 -95 152 -159 238
-192 81 -32 223 -32 304 0 86 33 165 97 238 192 100 130 152 179 187 179 41 0
69 -24 154 -132 131 -166 214 -231 334 -263 82 -21 147 -19 257 9 407 103 637
358 714 791 13 75 17 152 17 305 0 309 -26 495 -167 1190 -120 591 -121 599
-120 895 1 526 74 923 239 1300 29 66 55 131 58 144 8 31 -15 84 -44 105 -22
15 -190 16 -2019 16 -1829 0 -1997 -1 -2019 -16z"/>
</g>
</svg>
